<?xml version="1.0" encoding="utf-8"?>
<!-- Generator: Adobe Illustrator 23.0.1, SVG Export Plug-In . SVG Version: 6.00 Build 0)  -->
<svg version="1.1" id="Layer_1" xmlns="http://www.w3.org/2000/svg" xmlns:xlink="http://www.w3.org/1999/xlink" x="0px" y="0px"
	 viewBox="0 0 1000 1000" style="enable-background:new 0 0 1000 1000;" xml:space="preserve">
<style type="text/css">
	.st0{fill:#231F20;}
	.st1{fill:#FFFFFF;}
	.st2{fill:none;stroke:#231F20;stroke-miterlimit:10;}
	.st3{fill:#FF0000;}
</style>
<g>
	<path d="M209.76,317.97c7-6.3,14.15-12.42,21.46-18.35c-4.24,8.75-6.55,18.67-8.04,28.06c-0.09,0.56-0.18,1.13-0.26,1.69
		c-2.91,19.27-4.88,38.65-6.46,58.07c-1.58,19.34-3.24,38.69-4.48,58.05c-1.23,19.1-2.14,38.82,0.72,57.82
		c1.62,10.8,5.91,36.06,22.03,31.24C250,530,258.19,508,263,492c0.96-3.19,1.89-6.52,2.8-9.92c1.44,4.09,3.52,7.99,6.91,10.48
		c7.64,5.6,18.73-1.46,23.3-7.55c4.19-5.59,8.37-15.81,12.05-26.41c0.35,1.39,0.78,2.77,1.34,4.12c2.82,6.78,9.86,10.49,17.11,9.86
		c7.17-0.62,13.57-4.97,18.63-9.82c11.72-11.23,17.43-26.91,22.92-41.8c0.52-1.42,1.04-2.85,1.55-4.27
		c0.29,0.71,0.59,1.42,0.93,2.12c2.32,4.85,6.33,9.38,10.35,12.88c4.61,4.02,10.16,6.2,16.31,5.82C410.28,436.67,422,427,429,418
		c6.53-8.4,16.88-29.6,21.72-41.66c1.05,5.06,2.71,10.03,5.28,14.32c10.96,18.3,34.39,2.62,42.53-10.49
		c5.69-9.15,9.91-22.54,6.06-33.28c6.46-2.4,11.92-7.06,16.83-13.22c0.45,8.4,3.03,16.37,9.18,23.11c5.01,5.49,12.75,7.06,19.5,4.03
		c8.32-3.73,14.33-12.17,18.6-19.93c3.25-5.9,5.64-12.17,7.52-18.62c1.42,5.68,3.61,12.01,8.39,15.51c7.64,5.6,18.73-1.46,23.3-7.55
		c4.19-5.59,8.37-15.81,12.05-26.41c0.35,1.39,0.78,2.77,1.34,4.12c2.82,6.78,9.86,10.49,17.11,9.86
		c7.17-0.62,13.57-4.97,18.63-9.82c11.72-11.23,17.43-26.91,22.92-41.8c0.77-2.08,1.52-4.17,2.28-6.26c0.51,1.88,1.12,3.72,1.85,5.5
		c3.71,9.05,11.98,14.99,21.88,14.2c9.04-0.72,14.92-5.37,21.38-11.51c6.66-6.34,11.08-15.3,14.53-24.62
		c0.59,11.54,2.65,22.96,6.74,34.25c3.8,10.48,8.92,20.93,17.38,28.44c9.29,8.26,20.96,13.56,33.46,13.86
		c30.55,0.73,55.78-28.2,65.76-54.52c4.45-11.74,6.96-24.23,7.38-36.78c0.25-7.52,0.07-15.59-3.16-22.55
		c-2.19-4.73-6.39-8.87-11.66-9.83c-6.02-1.09-11.93,2.29-16.07,6.38c-1.26,1.24-8.55,9.42-3.82,10.08
		c6.52,0.92,8.91,8.67,9.92,14.18c3.1,17.04-0.3,35.33-6.18,51.44c-2.6,7.12-6.49,14.81-13.05,19.06c-5.87,3.8-13.1,3.84-19.59,1.75
		c-3.5-1.13-6.81-2.83-9.86-4.89c-7.36-4.99-12.79-12.39-16.57-20.36c-1.97-4.16-3.52-8.52-4.7-12.96
		c-4.12-15.56-5.03-31.69-4.35-47.71c0.51-11.87,1.67-23.73,3.36-35.49c1.03-7.08,2.54-14.12,5.1-20.82
		c0.43-1.13,0.9-2.24,1.41-3.34c0.72-1.55,2.85-4.1,1.45-5.74c-1.65-1.94-5.4-0.27-7.27,0.52c-7.68,3.22-13.5,8.04-17.99,13.86
		c-1.6-2.77-3.92-5.09-7.14-6.61c-6.98-3.29-15.92-0.97-22.62,1.83c-20.82,8.7-35.23,28.59-42.72,49.25
		c-3.05,8.41-5.55,18.2-6.51,28.08c-6.16,21.21-15.16,50.16-27.6,63.43c-0.03-0.03-0.05-0.04-0.09-0.07c-4-3-2.19-15.8-1.24-21.64
		c1.84-11.27,4.03-22.57,6.12-33.81c1.3-7,2.75-13.98,3.69-21.04c0.96-7.19,3.36-18.39-3.33-23.69c-3.75-2.97-8.55-1.77-12.4,0.27
		c-2.96,1.57-17.52,11.3-11.61,15.58c0,0.07,0,0.14,0,0.24c-0.04,0.96-0.06,1.9-0.16,2.86c-0.4,3.49-1.18,7.04-1.99,10.45
		c-1.79,7.5-4.39,16.96-6.42,25.14c-1.23,4.94-2.51,9.9-3.59,14.89c-6.71,19.94-14.63,44.66-16.88,50.29
		c-0.07-0.5-0.12-1.01-0.19-1.54c-0.62-4.88-0.67-14.28-0.46-19.19c0.43-10.46,1.84-20.68,3.57-31.01
		c1.11-6.66,2.14-13.34,2.41-20.1c0.34-8.55,0.22-25.18-12.55-23.12c-4.85,0.78-16.91,6.92-15.98,13.35
		c0.13,0.89,0.51,1.58,1.31,2.04c0.84,0.48,0.74,3.76,0.41,7.14c-3.69,19.42-17.38,93.43-28.88,102c-3.42,2.55-8.14-3-9.84-5.69
		c-4.01-6.36-5.86-14.13-6.06-21.58c-0.03-0.97-0.03-1.94,0-2.91c0.75-7.84,2.62-15.55,8.13-21.33c1.2-1.26,3.2-4.43,0.03-4.51
		c-9.61,0.99-15.66,10.63-19.45,18.09c-1.18,2.08-2.29,4.11-3.38,6.07c-0.54,0.78-1,1.59-1.35,2.41c-2.52,4.46-5.04,8.62-8.22,12.49
		c-4.03,4.92-11.66,8.24-18.45,6.6c-0.2-0.05-0.4-0.07-0.6-0.1c-0.41-0.12-0.83-0.21-1.26-0.27c-6.79-0.96-10.86,2.75-13.11,5.4
		c3-12.71,6.48-25.32,8.27-38.27c1.38-9.95,1.52-26.11-10.54-28.11c-10.61-1.76-27.43,12.47-20.19,17.45
		c5.21,3.58,2.38,13.62,1.12,18.46c-2.42,9.29-4.41,18.68-6.74,27.99c-0.99,3.94-1.97,7.93-2.69,11.96
		c-8.1,19.83-18.12,42.19-21.4,48.5c-3,5.77-9.54,21.2-18.07,18.91c-8.35-2.24-9.64-13.09-10.09-20.13
		c-0.4-6.21,0.03-12.58,0.69-18.75c1.21-11.33,3.61-22.53,6.81-33.46c2.39-8.17,6.19-17.67,9.77-24.94
		c6.22-1.8,6.99,10.38,6.87,14.98c-0.31,12.16-5.5,25.23-12.77,34.97c-2.52,3.38-1.53,4.36,2.2,3.53c4.94-1.1,9.45-4.93,12.53-8.77
		c8.8-11,14.58-24.33,16.09-38.37c0.65-6.01,0.81-12.53-1.24-18.31c-1.92-5.42-7.35-7.55-12.79-7.4
		c-7.97,0.21-15.95,4.88-22.24,9.36c-7.64,5.45-13.74,12.61-18.47,20.68c-7.74,13.19-13.73,27.7-17.66,42.46
		c-1.92,7.19-3.61,14.59-4.02,21.95c-6.05,20.18-14.42,44.51-25.52,56.36c-0.03-0.03-0.05-0.04-0.09-0.07c-4-3-2.19-15.8-1.24-21.64
		c1.84-11.27,4.03-22.57,6.12-33.81c1.3-7,2.75-13.98,3.69-21.04c0.96-7.19,3.36-18.39-3.33-23.69c-3.75-2.97-8.55-1.77-12.4,0.27
		c-2.96,1.57-17.52,11.3-11.61,15.58c0,0.07,0,0.14,0,0.24c-0.04,0.96-0.06,1.9-0.16,2.86c-0.4,3.49-1.18,7.04-1.99,10.45
		c-1.79,7.5-4.39,16.96-6.42,25.14c-1.23,4.94-2.51,9.9-3.59,14.89c-6.71,19.94-14.63,44.66-16.88,50.29
		c-0.07-0.5-0.12-1.01-0.19-1.54c-0.62-4.88-0.67-14.28-0.46-19.19c0.43-10.46,1.84-20.68,3.57-31.01
		c1.11-6.66,2.14-13.34,2.41-20.1c0.34-8.55,0.22-25.18-12.55-23.12c-4.85,0.78-16.91,6.92-15.98,13.35
		c0.13,0.89,0.51,1.58,1.31,2.04c1.55,0.88-0.09,11.26-0.47,14.27c-0.99,7.84-2.79,15.58-4.2,23.34c-1.31,7.23-2.84,14.66-3.63,22.1
		c-0.27,1.61-0.59,3.34-1,5.31c-3.06,14.56-9.07,34.98-15.3,49.58c-2.26-13.63-2.71-37.25-2.71-40.93
		c-0.03-18.87,1.61-37.65,2.78-56.47c1.17-18.77,1.36-37.59,2.01-56.39c0.64-18.58,1.56-37.3,4.64-55.67
		c0.73-4.33,1.34-8.76,2.45-13.01c1.18-4.5,2.15-6.02,2.22-6.13c2.03-1.47,4.06-2.93,6.11-4.38c10.28-7.26,20.73-14.26,31.27-21.15
		c10.9-7.12,19.42-12.55,29.9-18.97c21.22-12.98,42.82-25.35,64.78-37.05c43.31-23.09,88.06-44.45,135.16-61.6
		c10.68-3.89,21.6-7.11,32.69-9.59c12.32-2.75,26.17-6.55,38.78-3.38c18.43,4.63,1.09,28.25-9.3,38.78
		c-6.87,6.96-18.83,15.57-24.78,18.1c-5.39,2.29-5.07,6.88,3.05,5.3c19.94-3.88,52.86-38.64,60.47-50.87
		c3.87-6.22,8.56-13.1,9.19-20.59c1.01-12.12-12.17-14.89-21.57-14.98c-37.33-0.35-73.86,13.89-107.7,28.24
		c-3.98,1.69-7.95,3.4-11.92,5.11c-26.22,11.34-52.03,23.67-77.45,36.71c-49.33,25.31-97.23,53.71-142.82,85.26
		c-21.17,14.65-41.65,30.21-61.16,46.87c1.27-5.98,2.54-10.36,3.78-12.42c1.24-2.07,2.68-3.91,4.78-5.12
		c2.52-1.45,11.64-2.67,8.75-7.41c-6.72-11.06-24.66,6.01-29.09,12.32c-6.19,8.82-9.58,20.48-12.87,30.64
		c-0.64,1.96-1.23,3.93-1.84,5.91c-12.84,12.29-25.15,25.17-36.81,38.71c-19.5,22.65-39.08,46.9-52.26,73.89
		c-5.09,10.43-13.56,27.7-2.65,37.34c4.12,3.65,9.35,4.58,14.7,4.15c3.64-0.29,7.2-1.51,10.88-1.32c1.84,0.1,3.36,1.06,5.11,1.28
		c1.55,0.2,2.79-1.06,3.77-2.15c2.13-2.37,2.32-5.78,1.14-8.62c-0.91-2.2-2.74-4.13-5.05-4.95c-2.35-0.83-4.98-0.57-7.23-1.74
		c-10.94-5.7-4.77-20.14-1.11-28.36c9.64-21.63,24.76-41.04,39.65-59.28c7.66-9.38,15.64-18.42,23.93-27.15
		c-3.14,13.03-5.66,26.21-7.68,39.47c-6.92,45.44-8.09,91.6-11.72,137.37c-1.81,22.8-7.97,125.61-31.91,147.95
		c-5.18,4.83-13.18-0.98-17.75-4.82c-10.33-8.67-17.08-21.55-20.16-34.53c-4.56-19.23-2.21-40.58,0.85-59.87
		c1.12-7.04,2.62-13.98,4.7-20.8c1.27-4.16,2.54-8.37,4.54-12.26c2.19-4.24,5.35-7.27,8.84-10.44c1.02-0.93,1.42-2.87,0.04-3.64
		c-1.44-0.8-4.05,0.34-5.42,0.82c-16.72,5.83-26.84,23.49-32.85,39.02c-7.09,18.33-10.87,38.1-11.42,57.73
		c-0.52,18.64,2.56,37.81,13.12,53.6c4.82,7.21,11.69,13.84,19.78,17.24c10.06,4.22,21.31,2.26,31.05-1.83
		c24.26-10.19,40.29-32.13,48.62-56.33c7.67-22.27,12.68-45.44,16.15-68.71c7.03-47.06,7.04-94.77,9.61-142.2
		C199.69,407.39,204.4,352.98,209.76,317.97z M712.68,203.01c1.79-11.7,5.55-35.86,21.36-36.15c6.96-0.13,11.32,5.53,13.66,11.44
		c0.63,1.6,0.34,3.78,1.35,5.22c0.03,0.05,0.07,0.09,0.11,0.13c-1.85,6.08-3.16,12.41-4.22,18.67c-1.34,4.93-2.63,9.88-3.97,14.81
		c-2.57,9.44-4.91,19.09-9.42,27.84c-1.67,3.23-3.3,7.32-6.41,9.46c-4.56,3.14-8.34-2.33-9.96-6.13
		C709.31,234.59,710.48,217.4,712.68,203.01z M479.2,350.97c2.08,0.71,5.19,0.75,6.47,1.42c2.35,1.24,3.85,3.49,4.67,5.96
		c1.79,5.35,1.08,11.71-0.6,17c-0.76,2.41-2.07,6.86-5.19,6.87c-3.43,0.01-4.99-4.1-5.67-6.81
		C476.88,367.33,477.65,359.04,479.2,350.97z"/>
	<path d="M549.97,472.88c-10.86-22.42-53.62-11.16-71.6-6.72c-55.56,13.73-108.65,42.36-156.65,72.84
		c-25.21,16-49.44,33.47-73,51.79c-11.23,8.73-22.54,17.44-33.42,26.61c-7,5.9-20.12,14.53-18.99,25.53
		c0.94,9.14,25.53,14.71,46.62,35.17c-0.09,0.13-0.19,0.28-0.28,0.44c-13.99,23.58-21.35,51.43-21.27,78.76
		c0.05,17.85,7.53,59.61,34.4,52.83c25.86-6.52,32.43-35.91,34.17-58.52c2.11-27.35-7.43-57.36-25.1-78.7
		c-26.58-32.1-49.85-36.4-44.83-45.85c3.65-6.88,51.35-37.69,61.66-44.85c31.8-22.08,64.22-43.4,98.65-61.19
		c23.16-11.97,47.35-22.04,72.4-29.33c18.66-5.43,38.02-9.66,57.57-7.79c8.03,0.77,19.34,2.61,19.97,12.75
		c0.74,11.93-27.82,31.74-32.45,33.98c-4.09,1.97-12.45,5.61-9.81,7.27c5.1,3.21,20.96-6.06,26.23-9.27
		C529.41,519.39,559.93,493.43,549.97,472.88z M254.9,712.83c0.8-6.06,1.8-10.98,2.89-15.7c10.96,19.9,22.09,58.05,9.03,91.02
		C248.28,772,252.08,734.11,254.9,712.83z"/>
	<path d="M377.79,641.55c-9.34-1.71-17.05,3.6-20.45,9.01c-0.79,1.25-1.72,3.33-1.04,4.79c0.37,0.78,1.28,0.84,1.9,1.85
		c0.62,1.01,1.06,3.86,1.27,6.51c-1.36,16.38-13.48,54.1-25.7,79.63c-0.82-2.03-1.45-4.14-1.79-7.8
		c-1.4-15.13,3.08-37.63,0.19-52.63c-1.17-6.07-3.67-13.03-9.23-16.05c-14.69-7.98-29.65,4.34-30.09,9.98
		c-0.2,2.54,2.98,2.22,4.64,3.46c9.29,6.89,1.77,43.89,1.77,60.62c0,7.94,0.68,17.46,5.39,24.13c11.29,15.99,28.85,0.05,36.34-14.06
		c3.66-6.9,9.85-22.12,15.65-38.79c-1.32,16.42-2.73,32.81-3.47,49.27c-19.62,25.68-30.31,37.57-42.66,61.62
		c-3.76,7.31-4.96,15.08-2.29,22.95c2.48,7.29,7.8,13.8,12.34,19.92c1.9,2.56,3.98,4.86,6.05,7.27c2.07,2.4,3.44,4.88,6.67,6.01
		c9.65,3.41,21.44-4.95,28.21-10.86c12.1-10.56,17.04-26.88,19.9-42.16c3.38-18.06,5.9-35.77,6.65-54.16
		c1.13-27.89,1.25-94.83,1.03-102.58C388.74,658.34,388.55,643.52,377.79,641.55z M349.98,817.97c-3.62,30.74-6.15,42.74-7.26,47.01
		c-3.2-0.92-5.08-2.58-7.13-5.22c-16.7-21.56-15.45-29.42-8.55-44.31c7.16-15.45,14.62-26.24,25.62-40.55
		C352.18,789.29,351.67,803.67,349.98,817.97z"/>
	<path d="M488.35,639.85c-1.15-9.35,0.42-22.34-8.15-26.42c-5.77-2.74-12.33,1.96-13.72,2.84c0,0,0,0-0.01,0
		c-3.15,1.86-6.72,4.54-7.04,8.12c-1.38,15.39-5.04,39.71-10.54,55.16c-2.7,7.6-8.05,22.61-11.27,23.35
		c-0.39-0.43-0.77-0.89-1.12-1.39c-1.58-2.29-2.69-4.93-3.51-7.58c-6.68-21.71,0.69-46.18,8.75-66.49
		c2.32-5.83,4.67-12.69,9.87-16.62c2.78-2.1,5.08,0.18,5.94,2.82c1.32,4.05,18.09,0.04,21.58-11.22c1.86-6-2.25-10.28-5.78-11.84
		c-5.14-2.28-11.12,0.18-15.91,2.25c-11.26,4.89-21.9,13.54-29.87,22.81c-12.86,14.97-20.34,33.49-24.39,52.65
		c-3.51,16.58-6.41,38.48,7.68,51.15c9.98,8.97,24.76,3.87,31.98-5.48c5.62-7.27,11.36-19.35,15.22-29.1
		c0.5-1.26,0.99-2.51,1.47-3.77c-0.32,15.08-0.73,30.17-1.44,45.24c-0.31,6.62-0.68,13.24-1.08,19.86
		c-8.88,7.31-24.63,24.12-40.02,44.38c-9.91,13.04-21.05,28.73-22.35,45.63c-1.11,14.35,8.26,25.16,14.75,36.95
		c2.56,4.65,5.16,9.27,7.74,13.91c2.31,4.16,4.26,9.04,7.63,12.46c4.2,4.24,8.79,4.16,14.32,2.26c9.55-3.29,18.76-10.52,24.01-19.21
		c7.37-12.22,9.39-27.42,12.2-41.16c7.35-36.04,11.88-72.59,14.12-109.29c1.25-20.47,1.78-41.13,0.89-61.63
		C489.87,660.31,489.6,649.98,488.35,639.85z M449.86,824.14c-2.09,16.1-4.65,32.14-7.57,48.11c-0.62,3.41-1.05,6.04-1.66,8.64
		c-4.25-4.23-7.91-9.51-11.16-14.55c-5.66-8.76-13.16-17.29-16.75-27.1c-6-16.4,1.61-26.78,17.48-50.08
		c7.76-11.39,16.98-22.06,26.17-32.51C454.85,779.2,452.77,801.71,449.86,824.14z"/>
	<path d="M838.83,633.75c-57.28,2.9-113.9,22.43-165.37,46.75c-26.61,12.58-52.39,27.07-76.68,43.69c0.87-15.9,1.42-31.8,1.59-47.67
		c0.31-29.53-0.92-59.12-2.64-88.59c-0.81-13.86,1.94-51.66-20.66-49.85c-7.35,0.59-21.46,9.41-16.68,17.13
		c2.13,3.45,2.18,8.71,2.58,12.6c0.19,1.87,0.35,3.75,0.49,5.63c-3.2,18.39-14,50.79-24.88,73.52c-0.82-2.03-1.45-4.14-1.79-7.8
		c-1.4-15.13,3.08-37.63,0.19-52.63c-1.17-6.07-3.67-13.03-9.23-16.05c-14.69-7.98-29.65,4.34-30.09,9.98
		c-0.2,2.54,2.98,2.22,4.64,3.46c9.29,6.89,1.77,43.89,1.77,60.62c0,7.94,0.68,17.46,5.39,24.13c11.29,15.99,28.85,0.05,36.34-14.06
		c4.33-8.16,12.18-27.92,18.75-47.97c0.2,17.29-0.04,34.58-0.38,51.86c-0.62,31.52-1.52,63.08-3.33,94.57
		c-8.09,6.86-15.94,14.02-23.51,21.49c-18.34,18.1-35.02,38.53-40.41,64.35c-6.17,29.56,8.92,50.74,23.55,74.75
		c4.81,7.89,9.48,23.62,20.84,22.98c8.17-0.46,16.45-7.07,21.98-12.61c7.87-7.9,11.38-18.36,13.84-28.99
		c3.17-13.66,5.63-27.51,7.77-41.35c6-38.67,10.54-77.82,13.12-117.01c40.28-28.44,89.54-52.63,137.95-67.53
		c26.57-8.18,53.38-14.14,81.19-15.61c9.71-0.51,21.97-2.36,30.01,4.56c9.76,8.4,3.09,21.67-3.74,29.59
		c-8.02,9.3-19.72,16.16-29.94,22.8c-2.52,1.64-22.65,12.45-14.94,16.49c3.72,1.95,13.9-4.17,16.99-5.65
		c9.86-4.73,19.29-10.44,28.3-16.64c10.69-7.35,21.26-15.43,29.62-25.43c6.63-7.92,16.17-20.73,13.43-31.8
		C880.69,630.36,851.55,633.1,838.83,633.75z M555.74,795.94c-3.41,38.68-10.03,77.37-13.67,115.94
		c-5.79-7.33-10.56-16.1-15.82-23.8c-10.7-15.69-18.17-31.83-15.53-51.25c3.92-28.83,24.93-51.38,47.27-70.43
		C557.35,776.26,556.61,786.1,555.74,795.94z"/>
	<path d="M938.88,444.53c-2.47-4.15-7.73-4.4-11.9-2.87c-3.2,1.17-6.18,3.65-8.26,6.3c-2.98,3.78-0.87,4.45,0.46,8.04
		c2.65,7.22-1.33,18.52-3.62,25.37c-2.83,8.45-6.81,16.68-11.8,24.07c-3.58,5.29-9.01,11.34-16.06,10.66
		c-5.25-0.5-9.13-4.85-11.85-8.99c-7.19-10.94-9.86-24.77-11.32-37.52c-0.65-5.71-1.06-11.52-1.2-17.35
		c3.37-0.32,6.61-0.97,9.18-1.64c8.33-2.18,16.16-6.25,23.21-11.13c13.62-9.44,24.14-22.49,29.92-38.05
		c5.46-14.71,9.32-36.78-2.99-49.34c-12.81-13.07-32.92-0.41-44.12,8.62c-27.38,22.08-42.44,56.86-45.77,91.31
		c-0.36,3.73-0.64,7.98-0.75,12.53c-0.01,0.03-0.02,0.06-0.02,0.09c-3.53,17.75-8.45,38.02-18.05,53.4c-1.25,2-2.56,3.97-3.96,5.88
		c-1.36,1.86-3.71,4.29-5.58,5.67c-2.95,2.16-6.72,1.7-9.68,0.38c-3.44-1.53-6.94-4.21-9.4-7.04c-6.54-7.54-8.74-18.3-9.81-28.03
		c-0.12-1.12-0.23-2.25-0.33-3.37c5.06,0.54,10.91-0.37,15.38-2.88c16.25-9.08,26.03-25.34,31.88-42.5
		c2.94-8.62,5.82-19.13,1.91-27.9c-2.81-6.3-9.32-9.47-15.97-9.5c-9.99-0.05-19.79,6.41-27.34,12.31
		c-7.89,6.16-14.65,13.75-19.71,22.4c-7.27,12.41-11.76,26.18-14.25,40.31c-5.13,18.83-9.21,42.79-12,73.26
		c-4.12,2.6-8.04,5.11-11.17,2.85c-4.31-3.13,0.26-35.1,0.98-40.4c0.89-6.54,1.76-12.9,1.53-19.54c-0.25-7.2-1.04-14.55-3.9-21.23
		c-1.85-4.33-5.68-8.02-10.78-8.94c-5.55-1-10.61,2.39-14.44,5.92c-1.68,1.55-8.86,8.98-3.95,10.71c3.22,1.13,4.07,6.37,4.33,9.62
		c0.53,6.84,0.05,13.79-0.54,20.62c-1.1,12.76-3.41,22.01-3.1,31.42c-4.06,15.5-8.71,24.64-11.54,29.45
		c-1.17-2.1-3.58-10.71-4.18-26.32c-0.42-11.08,0.48-22.37,0.17-33.45c-0.26-9.55-3.6-23.83-14.19-25.04
		c-4.99-0.57-10.33,1.58-13.97,4.74c-1.26,1.1-8,7.87-3.67,9.12c3.95,1.15,4.98,7.47,5.59,10.94c1.1,6.24,1.09,12.62,0.97,18.94
		c-0.19,10.24-1.88,20.36-1.81,30.54c-4.39,19.84-10.01,30.98-13.23,36.47c-1.17-2.1-3.58-10.71-4.18-26.32
		c-0.42-11.08,0.48-23.8,0.17-34.88c-0.26-9.55-3.6-23.83-14.19-25.04c-4.99-0.57-10.33,1.58-13.97,4.74c-1.26,1.1-8,7.87-3.67,9.12
		c3.95,1.15,4.98,7.47,5.59,10.94c1.1,6.24,1.09,14.06,0.97,20.37c-0.25,13.75-3.23,27.29-0.99,41.06
		c1.04,6.37,3.64,11.7,8.68,15.82c7.24,5.93,14.36,3.42,21.68-1.71c8.1-5.67,12.99-19.86,16.52-31.85c1.44,2.87,3.43,5.42,6.12,7.62
		c7.24,5.93,14.36,3.42,21.68-1.71c6.85-4.8,11.4-15.69,14.78-26.18c0.24,0.63,0.49,1.28,0.77,1.96c1.35,3.2,4.03,7.26,8.13,8.9
		c10.09,4.03,16.98-6.86,22.69-8.02c2.49-0.51,4.02-0.04,5.09,0.88c-0.43,5.6-0.82,11.39-1.17,17.41
		c-0.45,7.81-1.62,21.48,6.11,23.29c0.39,0.09,0.79,0.14,1.2,0.15c0.07,0,0.15,0,0.23,0c3.47,0.01,7.42-2.5,9.15-4.83
		c1.32-1.57,1.92-3.32,1.01-4.89c-2.12-3.7-0.43-6.86,0.38-8.93c5.17-13.16,7.3-21.57,6.2-27.24c-1.26-6.5-5.42-11.07-12.59-11.06
		c-0.97,0-1.96,0.2-2.95,0.54c1.05-12.1,2.6-23.56,4.47-34.23c0.65,3.45,1.58,6.83,2.89,10.12c5.12,12.92,16.15,20,29.9,20.34
		c15.03,0.37,28.09-7.82,38.08-18.3c7.7-8.08,13.63-22.44,17.56-34.79c4.31,20.76,14.9,38.65,38.15,37.35
		c31.9-1.78,55.51-36.07,64.27-63.65C939.22,463.19,943.13,451.67,938.88,444.53z M866.81,412.59c3-14.05,8.35-29.59,17.93-40.68
		c3.28-3.8,7.85-7.65,13.23-6.62c6.58,1.27,10.89,8.36,12.47,14.34c7.08,26.94-16.05,66.63-47,60.2
		C863.83,430.63,864.92,421.47,866.81,412.59z M775.36,464.69c1.4-11.29,4.3-23.29,10.66-32.87c1.47-2.22,3.15-4.37,5.51-5.7
		c2.39-1.35,5.07-1.42,7.65-0.57c2.26,0.75,4.35,2.12,5.79,4.03c5.2,6.94,3,16.9,0.44,24.4c-2.38,6.97-5.26,13.95-9.47,20.03
		c-3.13,4.52-9.04,8.52-14.82,8.08c-2.6-0.2-4.81-1.11-6.58-2.58C774.51,474.57,774.75,469.64,775.36,464.69z"/>
	<path d="M725.22,364.92c3.02-0.78,26.23-6.89,25.75-0.1c-0.22,3.05,11.43,2.66,14.48-7.1c3.96-12.69-18.44-7.91-24.45-6.7
		c-16.76,3.36-32.96,10.23-47.96,18.3c-17.92,9.63-34.53,21.66-48.52,36.15c-3.63,0.43-7.17,1.23-10.15,1.95
		c-7.07,1.69-14.05,4.5-20.75,7.56c14.57-11.84,27.83-25.72,38.45-41.16c2.97-4.32,5.72-9.45,4.38-14.84
		c-1.54-6.2-8.33-8.21-14.03-7.74c-8.3,0.69-15.86,5.24-22.64,9.74c-8.72,5.8-16.39,13.2-22.56,21.67
		c-5.37,7.36-9.45,15.61-12.32,24.24c-2.54,7.63-4.1,15.54-4.99,23.52c-0.91,8.26-1.23,16.62-0.94,24.92
		c0.27,7.6,0.95,15.61,3.7,22.77c1.18,3.08,2.96,6.3,5.78,8.16c2.74,1.8,6.06,1.76,9.06,0.66c3.19-1.17,6.52-3.04,8.43-5.94
		c1.25-1.89,1.41-4,0.82-6.01c-0.6-2.05-1.64-3.66-2.6-6.88c-1.07-3.57-2.49-9.83-2.93-13.52c-0.98-8.19-1.45-16.48-1.09-24.73
		c0-0.1,0.01-0.19,0.02-0.29c12.21-8.38,24.31-11.34,31.87-11.93c0.6-0.05,1.24-0.06,1.88-0.04c-6.78,8.59-12.69,17.9-17.49,27.96
		c-3.56,7.45-9.22,17.63-6.3,26.11c3.72,10.77,14.66,7.85,22.24,4.28c0.04-0.02,0.09-0.04,0.13-0.06c0.26-0.12,0.51-0.25,0.76-0.37
		c0.01-0.01,0.03-0.02,0.05-0.02c0.09-0.05,0.18-0.1,0.27-0.14c0.12-0.07,0.25-0.13,0.39-0.21c2.61-1.42,5.01-3.28,7.17-5.18
		c10.36-9.11,19.73-22.01,24-35.31c2.3-7.16,3.65-16.82-1.08-23.33c-2.44-3.35-5.89-5.05-9.73-5.76c1.4-1.4,2.84-2.77,4.33-4.09
		C677.74,384.56,700.39,371.31,725.22,364.92z M601,419.93c0.6-4.72,1.47-9.4,2.65-14.01c1.91-7.47,4.63-14.8,8.54-21.46
		c1.93-3.28,4.15-6.37,6.6-9.28c3.08-3.65,13.17-12.84,15.28-4.76c0.89,3.42-0.62,8.09-2,11.07c-6.17,13.31-25.21,31.98-30.59,37.92
		C601.32,419.6,601.16,419.76,601,419.93z M646.78,437.78c-1.82,9.26-6.88,20.49-14.34,27.8c-4.76,0.67-7.23-5.06-6.09-11.38
		c1.14-6.38,4.23-13,6.99-18.79c2.59-5.41,5.58-10.55,8.95-15.42c1.19,0.74,2.24,1.66,3.05,2.78
		C648.55,427.19,647.75,432.88,646.78,437.78z"/>
</g>
</svg>
